<?xml version="1.0" encoding="UTF-8"?>
<svg width="1058px" height="162px" viewBox="0 0 1058 162" version="1.1" xmlns="http://www.w3.org/2000/svg" xmlns:xlink="http://www.w3.org/1999/xlink">
    <!-- Generator: Sketch 43.2 (39069) - http://www.bohemiancoding.com/sketch -->
    <title>Artboard 5</title>
    <desc>Created with Sketch.</desc>
    <defs></defs>
    <g id="Page-1" stroke="none" stroke-width="1" fill="none" fill-rule="evenodd">
        <g id="Artboard-5">
            <g id="Group-2" transform="translate(230.000000, 25.500000)">
                <polygon id="Fill-31" fill="#2A96BC" points="645.036 110.18 699.633 110.18 699.633 91.43 645.036 91.43"></polygon>
                <polygon id="Fill-32" fill="#F3CC97" points="591.214 19.556 645.812 19.556 645.812 0.805 591.214 0.805"></polygon>
                <g id="Group-6" transform="translate(0.874000, 0.000000)">
                    <polygon id="Fill-25" fill="#DB2F4D" points="617.129 64.868 671.727 64.868 671.727 46.117 617.129 46.117"></polygon>
                    <polyline id="Fill-26" fill="#161615" points="83.443 0.648 83.443 110.025 63.132 110.025 19.225 35.181 19.225 110.025 0.475 110.025 0.475 0.648 20.787 0.648 64.694 75.492 64.694 0.648 83.443 0.648"></polyline>
                    <polyline id="Fill-27" fill="#161615" points="280.299 55.492 321.861 110.18 298.424 110.18 268.58 70.961 238.735 110.18 215.298 110.18 256.861 55.492 215.298 0.805 238.735 0.805 268.58 40.024 298.424 0.805 321.861 0.805 280.299 55.492"></polyline>
                    <polyline id="Fill-28" fill="#161615" points="415.989 19.556 383.959 19.556 383.959 110.18 365.208 110.18 365.208 19.556 333.021 19.556 333.021 0.805 415.989 0.805 415.989 19.556"></polyline>
                    <polyline id="Fill-29" fill="#161615" points="461.524 110.18 427.149 0.805 446.838 0.805 471.054 77.836 493.4 0.805 513.087 0.805 537.306 77.836 559.649 0.805 579.182 0.805 547.306 110.18 527.773 110.18 503.558 33.148 481.055 110.18 461.524 110.18"></polyline>
                    <path d="M772.793,32.679 C772.793,29.034 771.515,25.938 768.965,23.383 C766.413,20.83 763.313,19.556 759.667,19.556 L729.042,19.556 L729.042,46.117 L759.667,46.117 C763.313,46.117 766.413,44.844 768.965,42.289 C771.515,39.738 772.793,36.64 772.793,32.992 L772.793,32.679 Z M785.45,51.742 C789.613,54.66 792.948,58.408 795.449,62.993 C797.95,67.576 799.199,72.578 799.199,77.992 L799.199,78.305 C799.199,82.681 798.364,86.821 796.698,90.728 C795.032,94.633 792.741,98.02 789.824,100.885 C786.906,103.75 783.52,106.016 779.669,107.68 C775.812,109.348 771.698,110.18 767.323,110.18 L736.229,110.18 L743.73,91.43 L767.323,91.43 C770.968,91.43 774.067,90.156 776.621,87.604 C779.171,85.05 780.449,81.953 780.449,78.305 L780.449,77.992 C780.449,74.348 779.171,71.248 776.621,68.697 C774.067,66.144 770.968,64.868 767.323,64.868 L729.042,64.868 L729.042,110.18 L710.292,110.18 L710.292,0.805 L759.667,0.805 C764.042,0.805 768.184,1.639 772.089,3.303 C775.994,4.972 779.381,7.264 782.244,10.181 C785.109,13.098 787.375,16.485 789.042,20.334 C790.709,24.191 791.542,28.305 791.542,32.679 L791.542,32.992 C791.542,36.535 790.997,39.896 789.901,43.07 C788.809,46.25 787.324,49.141 785.45,51.742 L785.45,51.742 Z" id="Fill-30" fill="#161615"></path>
                    <polygon id="Fill-33" fill="#DB2F4D" points="122.527 64.868 177.125 64.868 177.125 46.117 122.527 46.117"></polygon>
                </g>
                <polygon id="Fill-34" fill="#2A96BC" points="96.369 110.18 150.966 110.18 150.966 91.43 96.369 91.43"></polygon>
                <polygon id="Fill-35" fill="#F3CC97" points="150.19 19.556 204.788 19.556 204.788 0.805 150.19 0.805"></polygon>
            </g>
            <g id="Group" transform="translate(40.000000, 9.000000)">
                <polygon id="Fill-36" fill="#2A96BC" points="0.530365954 107.914791 62.0972913 143.744547 62.0998167 72.4865663 0.539204701 36.661861"></polygon>
                <polyline id="Fill-37" fill="#F3CC97" points="123.694521 37.0936969 62.1465358 72.4941423 62.1036047 72.5206586 62.1036047 143.747072 62.1111808 143.75086 62.1111808 143.749597 62.1124435 143.75086 123.697046 108.331474 123.697046 37.0936969 123.694521 37.0949596 123.694521 37.0936969"></polyline>
                <polygon id="Fill-38" fill="#DB2F4D" points="0.13767304 36.4383669 62.0733004 72.4802529 124.053122 36.8563134 62.0909779 0.792961897"></polygon>
            </g>
        </g>
    </g>
</svg>